/vscmnt/brussel_pixiu_data/_data_brussel/112/vsc11236/PredSimResults/SUBJ09mtu3D/weighted-LRposFixed/expIG/worker_05.mot
version=1
nRows=7
nColumns=50
inDegrees=yes
endheader
                time	         pelvis_tilt	         pelvis_list	     pelvis_rotation	           pelvis_tx	           pelvis_ty	           pelvis_tz	       hip_flexion_r	     hip_adduction_r	      hip_rotation_r	        knee_angle_r	       ankle_angle_r	         mtp_angle_r	       hip_flexion_l	     hip_adduction_l	      hip_rotation_l	        knee_angle_l	       ankle_angle_l	         mtp_angle_l	    lumbar_extension	      lumbar_bending	     lumbar_rotation	 ercspn_r/activation	 intobl_r/activation	 extobl_r/activation	    abd_r/activation	    add_r/activation	hamstrings_r/activation	bifemsh_r/activation	glut_max_r/activation	iliopsoas_r/activation	rect_fem_r/activation	  vasti_r/activation	gastroc_r/activation	 soleus_r/activation	tib_ant_r/activation	 ercspn_l/activation	 intobl_l/activation	 extobl_l/activation	    abd_l/activation	    add_l/activation	hamstrings_l/activation	bifemsh_l/activation	glut_max_l/activation	iliopsoas_l/activation	rect_fem_l/activation	  vasti_l/activation	gastroc_l/activation	 soleus_l/activation	tib_ant_l/activation	
          0.66422241	         -7.97165116	          4.75286312	         -8.21855537	          0.73064465	          0.98280128	          0.01457448	         -9.46411625	         -4.82020269	          6.73841080	         -6.41786776	         11.36802091	         26.47298057	         31.23044709	          1.26100784	         -5.44133292	         -2.12413989	          6.42794381	          0.21652331	          0.08269132	         -2.84888864	          3.40757489	          0.03404116	          0.00999999	          0.00999999	          0.06081295	          0.02010235	          0.02515181	          0.14253466	          0.06139185	          0.49583972	          0.00999999	          0.00999999	          0.35663150	          0.29597871	          0.01491835	          0.08551430	          0.13044091	          0.03320191	          0.01221406	          0.08390033	          0.10971251	          0.19550058	          0.00999999	          0.10594103	          0.00999999	          0.00999999	          0.01138247	          0.00999999	          0.26643396	
          0.67750686	         -8.08092485	          4.65801725	         -8.22082703	          0.74858545	          0.98043038	          0.01416060	         -9.79660485	         -4.75911644	          6.32762931	         -7.58063483	         10.80639911	         28.38377539	         31.45157593	          1.34748464	         -5.31292157	         -3.96307285	          5.98444137	          0.21471454	          0.39158522	         -3.14426365	          3.48917073	          0.07922473	          0.00999999	          0.00999999	          0.04978924	          0.05338637	          0.02059248	          0.11669706	          0.05026320	          0.51109940	          0.00999999	          0.00999999	          0.33186528	          0.27987816	          0.01221406	          0.07001292	          0.10679557	          0.02718332	          0.00999999	          0.13712624	          0.09549171	          0.16006172	          0.07513758	          0.08673684	          0.00999999	          0.00999999	          0.02250203	          0.01491835	          0.27866736	
          0.69079131	         -8.16918412	          4.55397288	         -8.17088019	          0.76699415	          0.97833679	          0.01368557	         -9.99157820	         -4.67172863	          5.89227798	         -9.07792653	         10.09434124	         30.37976508	         31.45259876	          1.41382382	         -5.15273659	         -5.65877256	          5.49669442	          0.19997878	          0.72558237	         -3.44153032	          3.54063799	          0.07771057	          0.00999999	          0.00999999	          0.04076383	          0.04803335	          0.02372057	          0.09554310	          0.04115187	          0.49972699	          0.00999999	          0.00999999	          0.30384036	          0.26021469	          0.00999999	          0.06156299	          0.08743648	          0.02225573	          0.06532663	          0.12498109	          0.08754432	          0.13104695	          0.11611840	          0.07101385	          0.00999999	          0.00999999	          0.01842304	          0.01221407	          0.32999633	
          0.70407576	         -8.23952154	          4.43743425	         -8.07041652	          0.78554240	          0.97678908	          0.01311657	         -9.94390733	         -4.55017388	          5.44635090	        -11.03891548	          9.16443431	         32.46154081	         31.25825013	          1.48536905	         -5.02649685	         -7.02241999	          4.86207336	          0.17494533	          1.05111703	         -3.73352475	          3.55808527	          0.10328053	          0.00999999	          0.00999999	          0.03337447	          0.05390552	          0.02149928	          0.07822377	          0.03369217	          0.48027970	          0.00999999	          0.01221406	          0.25425314	          0.21895011	          0.00999999	          0.07053429	          0.07158666	          0.01822138	          0.11955558	          0.13913370	          0.07668886	          0.10729175	          0.16463763	          0.05814100	          0.00999999	          0.00999999	          0.01508345	          0.00999999	          0.36269170	
          0.71736020	         -8.29093840	          4.31499219	         -7.92344174	          0.80394872	          0.97596507	          0.01246468	         -9.58352482	         -4.39878569	          4.98872384	        -13.54592757	          7.99241570	         34.52204292	         30.96666947	          1.57038328	         -4.92649054	         -8.27093533	          4.39788157	          0.14582318	          1.34278247	         -4.02999691	          3.53861047	          0.13114210	          0.00999999	          0.00999999	          0.02732460	          0.06563570	          0.02196626	          0.06404396	          0.02758471	          0.43968828	          0.00999999	          0.00999999	          0.20816406	          0.17926050	          0.00999999	          0.06653533	          0.05860997	          0.01491835	          0.15339348	          0.14739703	          0.06556058	          0.08784272	          0.19391264	          0.04760164	          0.00999999	          0.01000003	          0.01234924	          0.01143696	          0.38144961	
          0.73064465	         -8.32197854	          4.19034786	         -7.73265694	          0.82199917	          0.97592238	          0.01174970	         -8.87316795	         -4.22282867	          4.51341163	        -16.63289260	          6.58219735	         36.35664622	         30.63028132	          1.66759553	         -4.83090048	         -9.47434679	          4.11971434	          0.12651132	          1.58244432	         -4.33635745	          3.48062335	          0.14676703	          0.00999999	          0.00999999	          0.02237140	          0.08948427	          0.03086970	          0.05243456	          0.02258436	          0.37396504	          0.00999999	          0.00999999	          0.17042966	          0.14676551	          0.00999999	          0.06486872	          0.04798560	          0.01221406	          0.16505406	          0.12468180	          0.06029193	          0.07191926	          0.19883584	          0.03897277	          0.00999999	          0.09234473	          0.01011066	          0.00999999	          0.38932914	
          0.74392910	         -8.33319541	          4.05309976	         -7.50108569	          0.83958315	          0.97669552	          0.01101554	         -7.82129046	         -4.01793003	          4.00935666	        -20.25360039	          4.99425912	         37.54254521	         30.20069095	          1.76908239	         -4.70905279	        -10.51494748	          3.96036571	          0.10726576	          1.76216056	         -4.64305502	          3.38385850	          0.15836589	          0.00999999	          0.00999999	          0.01831608	          0.10404362	          0.02718332	          0.05161369	          0.01849044	          0.30617550	          0.00999999	          0.00999999	          0.13953547	          0.12016098	          0.00999999	          0.05310981	          0.03928714	          0.00999999	          0.16203094	          0.10208043	          0.05450509	          0.05888228	          0.18472561	          0.03190809	          0.00999999	          0.16383258	          0.00999999	          0.00999999	          0.38716964	
